<svg width="76" height="72" viewBox="0 0 76 72" fill="none" xmlns="http://www.w3.org/2000/svg">
<path d="M3.18653 25.0342L25.502 21.791L35.4775 1.56738C35.75 1.01367 36.1982 0.565432 36.752 0.292971C38.1406 -0.392576 39.8281 0.178713 40.5225 1.56738L50.4981 21.791L72.8135 25.0342C73.4287 25.1221 73.9912 25.4121 74.4219 25.8516C74.9425 26.3867 75.2294 27.1066 75.2195 27.8532C75.2097 28.5998 74.9038 29.3119 74.3691 29.833L58.2236 45.5742L62.0381 67.8018C62.1275 68.3188 62.0703 68.8506 61.8729 69.3368C61.6755 69.823 61.3459 70.2442 60.9213 70.5525C60.4967 70.8609 59.9942 71.0441 59.4708 71.0814C58.9474 71.1188 58.424 71.0087 57.96 70.7637L38 60.2695L18.04 70.7637C17.4951 71.0537 16.8623 71.1504 16.2559 71.0449C14.7266 70.7813 13.6982 69.3311 13.9619 67.8018L17.7764 45.5742L1.63087 29.833C1.19142 29.4023 0.901377 28.8398 0.813487 28.2246C0.576182 26.6865 1.64845 25.2627 3.18653 25.0342V25.0342Z" fill="white"/>
</svg>
